<?xml version="1.0" encoding="UTF-8" standalone="no"?>
<svg
   width="680"
   height="680"
   viewBox="0 0 680 680"
   fill="none"
   version="1.1"
   id="svg19"
   sodipodi:docname="latest_sqare.svg"
   inkscape:version="1.2 (dc2aedaf03, 2022-05-15)"
   xmlns:inkscape="http://www.inkscape.org/namespaces/inkscape"
   xmlns:sodipodi="http://sodipodi.sourceforge.net/DTD/sodipodi-0.dtd"
   xmlns="http://www.w3.org/2000/svg"
   xmlns:svg="http://www.w3.org/2000/svg">
  <defs
     id="defs23" />
  <sodipodi:namedview
     id="namedview21"
     pagecolor="#ffffff"
     bordercolor="#000000"
     borderopacity="0.25"
     inkscape:showpageshadow="2"
     inkscape:pageopacity="0.0"
     inkscape:pagecheckerboard="0"
     inkscape:deskcolor="#d1d1d1"
     showgrid="false"
     inkscape:zoom="1.1970588"
     inkscape:cx="339.58231"
     inkscape:cy="340"
     inkscape:window-width="1920"
     inkscape:window-height="1017"
     inkscape:window-x="-8"
     inkscape:window-y="-8"
     inkscape:window-maximized="1"
     inkscape:current-layer="svg19" />
  <path
     fill-rule="evenodd"
     clip-rule="evenodd"
     d="M 64,680 C 28.6538,680 0,651.3462 0,616 V 64 C 0,28.654 28.6538,0 64,0 h 552 c 35.346,0 64,28.654 64,64 v 316 c -2.784,16.793 -9.465,33.714 -26.552,50.807 -27.581,27.588 -54.615,28.145 -81.649,28.702 -27.035,0.557 -54.069,1.114 -81.649,28.702 -27.58,27.588 -28.137,54.63 -28.694,81.672 -0.557,27.0419 -1.113,54.0839 -28.694,81.672 C 408.18,676.10167 384.069,679.2289 360,680 Z"
     fill="#000000"
     id="path17" />
</svg>
